<svg xmlns="http://www.w3.org/2000/svg" xmlns:xlink="http://www.w3.org/1999/xlink" width="150" zoomAndPan="magnify" viewBox="0 0 112.5 112.499997" height="150" preserveAspectRatio="xMidYMid meet" version="1.0"><defs><clipPath id="56703ebb10"><path d="M 19 4.269531 L 87 4.269531 L 87 23 L 19 23 Z M 19 4.269531 " clip-rule="nonzero"/></clipPath><clipPath id="320bf3e514"><path d="M 0.0078125 28.132812 L 110.503906 28.132812 L 110.503906 106.566406 L 0.0078125 106.566406 Z M 0.0078125 28.132812 " clip-rule="nonzero"/></clipPath></defs><path fill="#7a512d" d="M 81.449219 23.089844 C 81.125 23.210938 81.132812 23.480469 81.15625 24.78125 C 81.261719 30.488281 80.824219 30.496094 81.367188 30.828125 C 81.558594 30.949219 81.792969 30.953125 81.980469 30.84375 C 82.339844 30.640625 82.292969 30.167969 82.292969 30.179688 C 82.402344 26.234375 82.53125 22.683594 81.449219 23.089844 Z M 25.117188 30.457031 C 25.117188 30.445312 25.164062 30.921875 24.800781 31.128906 C 24.613281 31.234375 24.375 31.230469 24.179688 31.109375 C 23.632812 30.773438 24.074219 30.765625 23.964844 25 C 23.941406 23.683594 23.9375 23.414062 24.261719 23.289062 C 25.355469 22.878906 25.226562 26.46875 25.117188 30.457031 " fill-opacity="1" fill-rule="nonzero"/><g clip-path="url(#56703ebb10)"><path fill="#fdd03f" d="M 84.007812 8.667969 C 81.699219 4.808594 82.652344 4.273438 81.375 4.621094 C 80.855469 4.761719 81.5625 5.777344 79.644531 9.371094 C 78.523438 11.433594 76.105469 15.046875 77.027344 18.863281 C 78.738281 25.949219 92.042969 22.085938 84.007812 8.667969 Z M 19.792969 19.015625 C 18.863281 15.160156 21.304688 11.507812 22.4375 9.421875 C 24.378906 5.792969 23.664062 4.765625 24.1875 4.621094 C 25.480469 4.269531 24.515625 4.8125 26.847656 8.710938 C 34.96875 22.273438 21.523438 26.179688 19.792969 19.015625 " fill-opacity="1" fill-rule="nonzero"/></g><path fill="#ffe482" d="M 81.898438 5.535156 C 81.890625 5.429688 81.800781 5.347656 81.691406 5.347656 C 81.582031 5.351562 81.496094 5.4375 81.488281 5.542969 C 81.40625 7.136719 80.996094 8.585938 80.300781 9.726562 C 80.050781 10.117188 79.78125 10.511719 79.542969 10.859375 C 78.503906 12.375 77.425781 13.945312 77.398438 15.960938 C 77.386719 16.152344 77.402344 16.40625 77.414062 16.613281 L 77.425781 16.75 C 77.429688 16.859375 77.519531 16.941406 77.628906 16.945312 C 77.738281 16.945312 77.824219 16.863281 77.832031 16.757812 C 77.839844 16.6875 77.847656 16.609375 77.851562 16.511719 C 77.863281 16.34375 77.878906 16.152344 77.902344 16.007812 C 78.105469 14.289062 79.003906 12.980469 79.957031 11.59375 C 80.28125 11.121094 80.621094 10.628906 80.933594 10.109375 C 81.585938 8.96875 81.933594 7.621094 81.933594 6.257812 C 81.933594 6.015625 81.921875 5.777344 81.898438 5.535156 Z M 23.742188 10.167969 C 23.425781 10.695312 23.085938 11.191406 22.753906 11.671875 C 21.792969 13.070312 20.882812 14.394531 20.679688 16.132812 C 20.652344 16.285156 20.636719 16.488281 20.628906 16.65625 C 20.621094 16.753906 20.613281 16.824219 20.609375 16.886719 C 20.597656 16.996094 20.511719 17.078125 20.402344 17.078125 C 20.289062 17.078125 20.199219 16.992188 20.195312 16.882812 L 20.1875 16.742188 C 20.171875 16.535156 20.15625 16.277344 20.167969 16.085938 C 20.195312 14.046875 21.285156 12.460938 22.335938 10.929688 C 22.578125 10.574219 22.851562 10.175781 23.101562 9.785156 C 23.804688 8.628906 24.21875 7.164062 24.304688 5.554688 C 24.308594 5.445312 24.398438 5.359375 24.507812 5.359375 C 24.617188 5.359375 24.707031 5.441406 24.71875 5.546875 C 24.863281 7.171875 24.515625 8.8125 23.742188 10.167969 " fill-opacity="1" fill-rule="nonzero"/><g clip-path="url(#320bf3e514)"><path fill="#ff7f9f" d="M 98.496094 67.226562 C 99.023438 53.585938 93.058594 42.386719 79.46875 43.910156 C 72.160156 44.730469 68.132812 50.964844 66.8125 58.671875 C 65.644531 65.558594 65.652344 81.929688 72.566406 87.613281 C 79.679688 93.621094 97.496094 93.128906 98.496094 67.226562 Z M 106.25 89.898438 C 101.644531 98.984375 93.964844 106.292969 80.382812 106.183594 C 58.855469 106.011719 52.882812 88.667969 52.882812 65.679688 C 52.886719 44.511719 61.070312 28.117188 82.195312 28.152344 C 118.972656 28.210938 111.164062 80.203125 106.25 89.898438 Z M 19.644531 106.492188 C 7.667969 106.550781 2.375 106.671875 0.910156 102.597656 C -2.121094 94.179688 2.539062 94.414062 13.859375 79.210938 C 25.253906 63.914062 27.890625 62.839844 29.078125 59.476562 C 33.429688 47.171875 23.832031 44.929688 20.183594 47.199219 C 14.75 50.578125 14.484375 60.910156 7.496094 60.910156 C 3.746094 60.910156 -0.167969 57.679688 0.0742188 51.746094 C 0.332031 45.421875 5.078125 36.910156 13.140625 32.164062 C 22.695312 26.539062 34.070312 28.726562 39.550781 33.148438 C 43.675781 36.480469 45.640625 41.539062 46.519531 46.820312 C 47.703125 53.949219 45.546875 61.140625 41.953125 67.476562 C 38.691406 73.238281 36.871094 74.84375 23.3125 90.042969 C 28.355469 89.917969 33.15625 89.914062 38.199219 90.007812 C 45.070312 90.132812 53.488281 90.089844 54.121094 95.832031 C 55.523438 108.59375 46.324219 106.359375 19.644531 106.492188 " fill-opacity="1" fill-rule="nonzero"/></g><path fill="#ff618c" d="M 100.214844 57.796875 C 99.519531 57.796875 98.957031 58.359375 98.957031 59.054688 C 98.957031 59.75 99.519531 60.3125 100.214844 60.3125 C 100.90625 60.3125 101.46875 59.75 101.46875 59.054688 C 101.46875 58.359375 100.90625 57.796875 100.214844 57.796875 Z M 64.421875 93.140625 C 63.730469 93.140625 63.167969 93.707031 63.167969 94.398438 C 63.167969 95.09375 63.730469 95.65625 64.421875 95.65625 C 65.117188 95.65625 65.679688 95.09375 65.679688 94.398438 C 65.679688 93.707031 65.117188 93.140625 64.421875 93.140625 Z M 60.285156 86.371094 C 59.59375 86.371094 59.03125 86.9375 59.03125 87.628906 C 59.03125 88.324219 59.59375 88.886719 60.285156 88.886719 C 60.980469 88.886719 61.542969 88.324219 61.542969 87.628906 C 61.542969 86.9375 60.980469 86.371094 60.285156 86.371094 Z M 68.5625 85.117188 C 67.867188 85.117188 67.304688 85.679688 67.304688 86.371094 C 67.304688 87.066406 67.867188 87.628906 68.5625 87.628906 C 69.253906 87.628906 69.816406 87.066406 69.816406 86.371094 C 69.816406 85.679688 69.253906 85.117188 68.5625 85.117188 Z M 61.542969 79.253906 C 60.847656 79.253906 60.285156 79.816406 60.285156 80.511719 C 60.285156 81.207031 60.847656 81.769531 61.542969 81.769531 C 62.234375 81.769531 62.796875 81.207031 62.796875 80.511719 C 62.796875 79.816406 62.234375 79.253906 61.542969 79.253906 Z M 55.507812 73.9375 C 54.816406 73.9375 54.253906 74.5 54.253906 75.195312 C 54.253906 75.890625 54.816406 76.453125 55.507812 76.453125 C 56.203125 76.453125 56.761719 75.890625 56.761719 75.195312 C 56.761719 74.5 56.203125 73.9375 55.507812 73.9375 Z M 63.789062 67.269531 C 63.097656 67.269531 62.535156 67.832031 62.535156 68.523438 C 62.535156 69.21875 63.097656 69.78125 63.789062 69.78125 C 64.484375 69.78125 65.046875 69.21875 65.046875 68.523438 C 65.046875 67.832031 64.484375 67.269531 63.789062 67.269531 Z M 56.761719 60.839844 C 56.070312 60.839844 55.507812 61.402344 55.507812 62.097656 C 55.507812 62.792969 56.070312 63.355469 56.761719 63.355469 C 57.457031 63.355469 58.019531 62.792969 58.019531 62.097656 C 58.019531 61.402344 57.457031 60.839844 56.761719 60.839844 Z M 63.789062 55.28125 C 63.097656 55.28125 62.535156 55.84375 62.535156 56.539062 C 62.535156 57.234375 63.097656 57.796875 63.789062 57.796875 C 64.484375 57.796875 65.046875 57.234375 65.046875 56.539062 C 65.046875 55.84375 64.484375 55.28125 63.789062 55.28125 Z M 56.761719 49.269531 C 56.070312 49.269531 55.507812 49.832031 55.507812 50.527344 C 55.507812 51.222656 56.070312 51.785156 56.761719 51.785156 C 57.457031 51.785156 58.019531 51.222656 58.019531 50.527344 C 58.019531 49.832031 57.457031 49.269531 56.761719 49.269531 Z M 82.875 35.550781 C 82.183594 35.550781 81.621094 36.113281 81.621094 36.804688 C 81.621094 37.5 82.183594 38.0625 82.875 38.0625 C 83.570312 38.0625 84.128906 37.5 84.128906 36.804688 C 84.128906 36.113281 83.570312 35.550781 82.875 35.550781 Z M 91.894531 30.921875 C 91.199219 30.921875 90.636719 31.484375 90.636719 32.179688 C 90.636719 32.875 91.199219 33.4375 91.894531 33.4375 C 92.585938 33.4375 93.148438 32.875 93.148438 32.179688 C 93.148438 31.484375 92.585938 30.921875 91.894531 30.921875 Z M 63.789062 44.238281 C 63.097656 44.238281 62.535156 44.804688 62.535156 45.496094 C 62.535156 46.191406 63.097656 46.753906 63.789062 46.753906 C 64.484375 46.753906 65.046875 46.191406 65.046875 45.496094 C 65.046875 44.804688 64.484375 44.238281 63.789062 44.238281 Z M 72.800781 101.378906 C 72.105469 101.378906 71.546875 101.941406 71.546875 102.636719 C 71.546875 103.332031 72.105469 103.894531 72.800781 103.894531 C 73.492188 103.894531 74.054688 103.332031 74.054688 102.636719 C 74.054688 101.941406 73.492188 101.378906 72.800781 101.378906 Z M 81.089844 98.863281 C 80.398438 98.863281 79.835938 99.425781 79.835938 100.121094 C 79.835938 100.816406 80.398438 101.378906 81.089844 101.378906 C 81.78125 101.378906 82.34375 100.816406 82.34375 100.121094 C 82.34375 99.425781 81.78125 98.863281 81.089844 98.863281 Z M 91.300781 100.121094 C 90.609375 100.121094 90.046875 100.683594 90.046875 101.378906 C 90.046875 102.074219 90.609375 102.636719 91.300781 102.636719 C 91.996094 102.636719 92.554688 102.074219 92.554688 101.378906 C 92.554688 100.683594 91.996094 100.121094 91.300781 100.121094 Z M 86.875 91.882812 C 86.179688 91.882812 85.621094 92.449219 85.621094 93.140625 C 85.621094 93.835938 86.179688 94.398438 86.875 94.398438 C 87.566406 94.398438 88.128906 93.835938 88.128906 93.140625 C 88.128906 92.449219 87.566406 91.882812 86.875 91.882812 Z M 97.273438 82.601562 C 96.582031 82.601562 96.019531 83.164062 96.019531 83.859375 C 96.019531 84.550781 96.582031 85.117188 97.273438 85.117188 C 97.964844 85.117188 98.527344 84.550781 98.527344 83.859375 C 98.527344 83.164062 97.964844 82.601562 97.273438 82.601562 Z M 100.214844 70.566406 C 99.519531 70.566406 98.957031 71.128906 98.957031 71.824219 C 98.957031 72.515625 99.519531 73.082031 100.214844 73.082031 C 100.90625 73.082031 101.46875 72.515625 101.46875 71.824219 C 101.46875 71.128906 100.90625 70.566406 100.214844 70.566406 Z M 95.65625 91.882812 C 94.964844 91.882812 94.402344 92.449219 94.402344 93.140625 C 94.402344 93.835938 94.964844 94.398438 95.65625 94.398438 C 96.351562 94.398438 96.914062 93.835938 96.914062 93.140625 C 96.914062 92.449219 96.351562 91.882812 95.65625 91.882812 Z M 73.5 91.402344 C 72.804688 91.402344 72.242188 91.964844 72.242188 92.660156 C 72.242188 93.355469 72.804688 93.917969 73.5 93.917969 C 74.191406 93.917969 74.753906 93.355469 74.753906 92.660156 C 74.753906 91.964844 74.191406 91.402344 73.5 91.402344 Z M 103.976562 87.628906 C 103.285156 87.628906 102.722656 88.195312 102.722656 88.886719 C 102.722656 89.582031 103.285156 90.144531 103.976562 90.144531 C 104.671875 90.144531 105.230469 89.582031 105.230469 88.886719 C 105.230469 88.195312 104.671875 87.628906 103.976562 87.628906 Z M 106.515625 77.25 C 105.820312 77.25 105.261719 77.8125 105.261719 78.507812 C 105.261719 79.199219 105.820312 79.765625 106.515625 79.765625 C 107.207031 79.765625 107.769531 79.199219 107.769531 78.507812 C 107.769531 77.8125 107.207031 77.25 106.515625 77.25 Z M 106.515625 64.105469 C 105.820312 64.105469 105.261719 64.667969 105.261719 65.363281 C 105.261719 66.058594 105.820312 66.621094 106.515625 66.621094 C 107.207031 66.621094 107.769531 66.058594 107.769531 65.363281 C 107.769531 64.667969 107.207031 64.105469 106.515625 64.105469 Z M 101.46875 37.109375 C 100.773438 37.109375 100.214844 37.671875 100.214844 38.367188 C 100.214844 39.0625 100.773438 39.625 101.46875 39.625 C 102.160156 39.625 102.722656 39.0625 102.722656 38.367188 C 102.722656 37.671875 102.160156 37.109375 101.46875 37.109375 Z M 106.515625 50.964844 C 105.820312 50.964844 105.261719 51.527344 105.261719 52.222656 C 105.261719 52.914062 105.820312 53.480469 106.515625 53.480469 C 107.207031 53.480469 107.769531 52.914062 107.769531 52.222656 C 107.769531 51.527344 107.207031 50.964844 106.515625 50.964844 Z M 98.527344 47.542969 C 97.835938 47.542969 97.273438 48.105469 97.273438 48.800781 C 97.273438 49.496094 97.835938 50.058594 98.527344 50.058594 C 99.222656 50.058594 99.78125 49.496094 99.78125 48.800781 C 99.78125 48.105469 99.222656 47.542969 98.527344 47.542969 Z M 90.636719 39.816406 C 89.945312 39.816406 89.382812 40.378906 89.382812 41.074219 C 89.382812 41.769531 89.945312 42.332031 90.636719 42.332031 C 91.332031 42.332031 91.894531 41.769531 91.894531 41.074219 C 91.894531 40.378906 91.332031 39.816406 90.636719 39.816406 Z M 74.054688 41.484375 C 73.363281 41.484375 72.800781 42.050781 72.800781 42.742188 C 72.800781 43.4375 73.363281 44 74.054688 44 C 74.746094 44 75.308594 43.4375 75.308594 42.742188 C 75.308594 42.050781 74.746094 41.484375 74.054688 41.484375 Z M 65.679688 35.550781 C 64.984375 35.550781 64.421875 36.113281 64.421875 36.804688 C 64.421875 37.5 64.984375 38.0625 65.679688 38.0625 C 66.371094 38.0625 66.933594 37.5 66.933594 36.804688 C 66.933594 36.113281 66.371094 35.550781 65.679688 35.550781 Z M 75.308594 32.179688 C 75.308594 32.875 74.746094 33.4375 74.054688 33.4375 C 73.363281 33.4375 72.800781 32.875 72.800781 32.179688 C 72.800781 31.484375 73.363281 30.921875 74.054688 30.921875 C 74.746094 30.921875 75.308594 31.484375 75.308594 32.179688 Z M 6.160156 55.527344 C 5.460938 55.527344 4.894531 56.09375 4.894531 56.796875 C 4.894531 57.5 5.460938 58.066406 6.160156 58.066406 C 6.863281 58.066406 7.429688 57.5 7.429688 56.796875 C 7.429688 56.09375 6.863281 55.527344 6.160156 55.527344 Z M 35.832031 49.464844 C 35.128906 49.464844 34.5625 50.035156 34.5625 50.738281 C 34.5625 51.441406 35.128906 52.007812 35.832031 52.007812 C 36.53125 52.007812 37.097656 51.441406 37.097656 50.738281 C 37.097656 50.035156 36.53125 49.464844 35.832031 49.464844 Z M 3.5625 45.488281 C 2.863281 45.488281 2.296875 46.058594 2.296875 46.761719 C 2.296875 47.460938 2.863281 48.03125 3.5625 48.03125 C 4.265625 48.03125 4.832031 47.460938 4.832031 46.761719 C 4.832031 46.058594 4.265625 45.488281 3.5625 45.488281 Z M 12.511719 50.738281 C 11.8125 50.738281 11.242188 51.304688 11.242188 52.007812 C 11.242188 52.710938 11.8125 53.28125 12.511719 53.28125 C 13.210938 53.28125 13.78125 52.710938 13.78125 52.007812 C 13.78125 51.304688 13.210938 50.738281 12.511719 50.738281 Z M 11.242188 41.96875 C 10.542969 41.96875 9.976562 42.535156 9.976562 43.238281 C 9.976562 43.941406 10.542969 44.507812 11.242188 44.507812 C 11.945312 44.507812 12.511719 43.941406 12.511719 43.238281 C 12.511719 42.535156 11.945312 41.96875 11.242188 41.96875 Z M 19.585938 42.277344 C 18.886719 42.277344 18.320312 42.847656 18.320312 43.546875 C 18.320312 44.25 18.886719 44.820312 19.585938 44.820312 C 20.289062 44.820312 20.855469 44.25 20.855469 43.546875 C 20.855469 42.847656 20.289062 42.277344 19.585938 42.277344 Z M 49.773438 100.820312 C 49.074219 100.820312 48.507812 101.390625 48.507812 102.089844 C 48.507812 102.792969 49.074219 103.363281 49.773438 103.363281 C 50.476562 103.363281 51.042969 102.792969 51.042969 102.089844 C 51.042969 101.390625 50.476562 100.820312 49.773438 100.820312 Z M 51.042969 93.195312 C 50.34375 93.195312 49.773438 93.761719 49.773438 94.464844 C 49.773438 95.167969 50.34375 95.734375 51.042969 95.734375 C 51.742188 95.734375 52.3125 95.167969 52.3125 94.464844 C 52.3125 93.761719 51.742188 93.195312 51.042969 93.195312 Z M 43.273438 96.234375 C 42.574219 96.234375 42.007812 96.804688 42.007812 97.503906 C 42.007812 98.207031 42.574219 98.777344 43.273438 98.777344 C 43.972656 98.777344 44.542969 98.207031 44.542969 97.503906 C 44.542969 96.804688 43.972656 96.234375 43.273438 96.234375 Z M 37.097656 102.804688 C 36.398438 102.804688 35.832031 103.375 35.832031 104.078125 C 35.832031 104.777344 36.398438 105.347656 37.097656 105.347656 C 37.800781 105.347656 38.367188 104.777344 38.367188 104.078125 C 38.367188 103.375 37.800781 102.804688 37.097656 102.804688 Z M 31.847656 97.503906 C 31.148438 97.503906 30.578125 98.074219 30.578125 98.777344 C 30.578125 99.476562 31.148438 100.046875 31.847656 100.046875 C 32.546875 100.046875 33.117188 99.476562 33.117188 98.777344 C 33.117188 98.074219 32.546875 97.503906 31.847656 97.503906 Z M 37.097656 91.921875 C 36.398438 91.921875 35.832031 92.492188 35.832031 93.195312 C 35.832031 93.894531 36.398438 94.464844 37.097656 94.464844 C 37.800781 94.464844 38.367188 93.894531 38.367188 93.195312 C 38.367188 92.492188 37.800781 91.921875 37.097656 91.921875 Z M 25.1875 93.195312 C 24.488281 93.195312 23.917969 93.761719 23.917969 94.464844 C 23.917969 95.167969 24.488281 95.734375 25.1875 95.734375 C 25.886719 95.734375 26.453125 95.167969 26.453125 94.464844 C 26.453125 93.761719 25.886719 93.195312 25.1875 93.195312 Z M 26.453125 102.089844 C 25.753906 102.089844 25.1875 102.660156 25.1875 103.363281 C 25.1875 104.0625 25.753906 104.632812 26.453125 104.632812 C 27.15625 104.632812 27.722656 104.0625 27.722656 103.363281 C 27.722656 102.660156 27.15625 102.089844 26.453125 102.089844 Z M 17.050781 100.265625 C 16.351562 100.265625 15.78125 100.832031 15.78125 101.535156 C 15.78125 102.238281 16.351562 102.804688 17.050781 102.804688 C 17.75 102.804688 18.320312 102.238281 18.320312 101.535156 C 18.320312 100.832031 17.75 100.265625 17.050781 100.265625 Z M 7.75 99.546875 C 7.046875 99.546875 6.480469 100.117188 6.480469 100.820312 C 6.480469 101.519531 7.046875 102.089844 7.75 102.089844 C 8.449219 102.089844 9.015625 101.519531 9.015625 100.820312 C 9.015625 100.117188 8.449219 99.546875 7.75 99.546875 Z M 4.832031 92.355469 C 4.132812 92.355469 3.5625 92.925781 3.5625 93.625 C 3.5625 94.328125 4.132812 94.898438 4.832031 94.898438 C 5.53125 94.898438 6.101562 94.328125 6.101562 93.625 C 6.101562 92.925781 5.53125 92.355469 4.832031 92.355469 Z M 17.050781 91.085938 C 16.351562 91.085938 15.78125 91.652344 15.78125 92.355469 C 15.78125 93.058594 16.351562 93.625 17.050781 93.625 C 17.75 93.625 18.320312 93.058594 18.320312 92.355469 C 18.320312 91.652344 17.75 91.085938 17.050781 91.085938 Z M 12.511719 83.648438 C 11.8125 83.648438 11.242188 84.21875 11.242188 84.921875 C 11.242188 85.621094 11.8125 86.191406 12.511719 86.191406 C 13.210938 86.191406 13.78125 85.621094 13.78125 84.921875 C 13.78125 84.21875 13.210938 83.648438 12.511719 83.648438 Z M 23.726562 80.632812 C 23.023438 80.632812 22.457031 81.203125 22.457031 81.90625 C 22.457031 82.605469 23.023438 83.175781 23.726562 83.175781 C 24.425781 83.175781 24.992188 82.605469 24.992188 81.90625 C 24.992188 81.203125 24.425781 80.632812 23.726562 80.632812 Z M 20.734375 73.128906 C 20.03125 73.128906 19.464844 73.695312 19.464844 74.398438 C 19.464844 75.101562 20.03125 75.667969 20.734375 75.667969 C 21.433594 75.667969 22 75.101562 22 74.398438 C 22 73.695312 21.433594 73.128906 20.734375 73.128906 Z M 33.117188 73.128906 C 32.414062 73.128906 31.847656 73.695312 31.847656 74.398438 C 31.847656 75.101562 32.414062 75.667969 33.117188 75.667969 C 33.816406 75.667969 34.382812 75.101562 34.382812 74.398438 C 34.382812 73.695312 33.816406 73.128906 33.117188 73.128906 Z M 28.191406 64.859375 C 27.492188 64.859375 26.925781 65.425781 26.925781 66.128906 C 26.925781 66.832031 27.492188 67.398438 28.191406 67.398438 C 28.894531 67.398438 29.460938 66.832031 29.460938 66.128906 C 29.460938 65.425781 28.894531 64.859375 28.191406 64.859375 Z M 38.367188 64.328125 C 37.667969 64.328125 37.097656 64.898438 37.097656 65.601562 C 37.097656 66.300781 37.667969 66.871094 38.367188 66.871094 C 39.066406 66.871094 39.636719 66.300781 39.636719 65.601562 C 39.636719 64.898438 39.066406 64.328125 38.367188 64.328125 Z M 43.273438 53.773438 C 42.574219 53.773438 42.007812 54.34375 42.007812 55.042969 C 42.007812 55.746094 42.574219 56.316406 43.273438 56.316406 C 43.972656 56.316406 44.542969 55.746094 44.542969 55.042969 C 44.542969 54.34375 43.972656 53.773438 43.273438 53.773438 Z M 42.007812 41.609375 C 41.304688 41.609375 40.738281 42.175781 40.738281 42.878906 C 40.738281 43.582031 41.304688 44.148438 42.007812 44.148438 C 42.707031 44.148438 43.273438 43.582031 43.273438 42.878906 C 43.273438 42.175781 42.707031 41.609375 42.007812 41.609375 Z M 33.679688 58.003906 C 32.980469 58.003906 32.410156 58.570312 32.410156 59.273438 C 32.410156 59.976562 32.980469 60.546875 33.679688 60.546875 C 34.378906 60.546875 34.949219 59.976562 34.949219 59.273438 C 34.949219 58.570312 34.378906 58.003906 33.679688 58.003906 Z M 34.949219 32.847656 C 34.246094 32.847656 33.679688 33.417969 33.679688 34.117188 C 33.679688 34.820312 34.246094 35.390625 34.949219 35.390625 C 35.648438 35.390625 36.214844 34.820312 36.214844 34.117188 C 36.214844 33.417969 35.648438 32.847656 34.949219 32.847656 Z M 31.847656 41.007812 C 31.148438 41.007812 30.578125 41.574219 30.578125 42.277344 C 30.578125 42.980469 31.148438 43.546875 31.847656 43.546875 C 32.546875 43.546875 33.117188 42.980469 33.117188 42.277344 C 33.117188 41.574219 32.546875 41.007812 31.847656 41.007812 Z M 25.1875 36.84375 C 24.488281 36.84375 23.917969 37.410156 23.917969 38.113281 C 23.917969 38.816406 24.488281 39.382812 25.1875 39.382812 C 25.886719 39.382812 26.453125 38.816406 26.453125 38.113281 C 26.453125 37.410156 25.886719 36.84375 25.1875 36.84375 Z M 13.78125 34.117188 C 13.078125 34.117188 12.511719 34.6875 12.511719 35.390625 C 12.511719 36.09375 13.078125 36.660156 13.78125 36.660156 C 14.480469 36.660156 15.046875 36.09375 15.046875 35.390625 C 15.046875 34.6875 14.480469 34.117188 13.78125 34.117188 Z M 23.269531 32.179688 C 23.269531 32.878906 22.703125 33.449219 22 33.449219 C 21.300781 33.449219 20.734375 32.878906 20.734375 32.179688 C 20.734375 31.476562 21.300781 30.90625 22 30.90625 C 22.703125 30.90625 23.269531 31.476562 23.269531 32.179688 " fill-opacity="1" fill-rule="nonzero"/></svg>